<svg xmlns="http://www.w3.org/2000/svg">
<rect width="1000" height="1000" style="fill:rgb(255,255,255); stroke-width:2; stroke:rgb(255,0,0)" />
<line x1="653.377" y1="0" x2="653.377" y2="0" style="stroke:rgb(255,0,0);stroke-width:2" />
<line x1="1000" y1="146.835" x2="1000" y2="146.835" style="stroke:rgb(255,0,0);stroke-width:2" />
<line x1="1000" y1="419.674" x2="1000" y2="419.674" style="stroke:rgb(255,0,0);stroke-width:2" />
<line x1="951.505" y1="632.914" x2="1000" y2="635.177" style="stroke:rgb(255,0,0);stroke-width:2" />
<line x1="836.236" y1="957.577" x2="860.721" y2="1000" style="stroke:rgb(255,0,0);stroke-width:2" />
<line x1="393.035" y1="1000" x2="393.035" y2="1000" style="stroke:rgb(255,0,0);stroke-width:2" />
<line x1="38.6016" y1="1000" x2="166.722" y2="873.851" style="stroke:rgb(255,0,0);stroke-width:2" />
<line x1="0" y1="937.827" x2="106.63" y2="843.5" style="stroke:rgb(255,0,0);stroke-width:2" />
<line x1="0" y1="752.151" x2="178.762" y2="710.507" style="stroke:rgb(255,0,0);stroke-width:2" />
<line x1="0" y1="535.21" x2="138.527" y2="531.449" style="stroke:rgb(255,0,0);stroke-width:2" />
<line x1="0" y1="320.289" x2="91.7298" y2="319.844" style="stroke:rgb(255,0,0);stroke-width:2" />
<line x1="195.283" y1="0" x2="262.123" y2="180.61" style="stroke:rgb(255,0,0);stroke-width:2" />
<line x1="574.512" y1="812.144" x2="553.043" y2="1000" style="stroke:rgb(255,0,0);stroke-width:2" />
<line x1="377.215" y1="1000" x2="377.215" y2="1000" style="stroke:rgb(255,0,0);stroke-width:2" />
<line x1="494.69" y1="840.75" x2="463.103" y2="1000" style="stroke:rgb(255,0,0);stroke-width:2" />
<line x1="310.729" y1="889.161" x2="332.612" y2="1000" style="stroke:rgb(255,0,0);stroke-width:2" />
<line x1="804.514" y1="702.534" x2="836.236" y2="957.577" style="stroke:rgb(255,0,0);stroke-width:2" />
<line x1="628.152" y1="799.588" x2="836.236" y2="957.577" style="stroke:rgb(255,0,0);stroke-width:2" />
<line x1="310.729" y1="889.161" x2="458.212" y2="816.811" style="stroke:rgb(255,0,0);stroke-width:2" />
<line x1="307.192" y1="881.764" x2="310.729" y2="889.161" style="stroke:rgb(255,0,0);stroke-width:2" />
<line x1="299.853" y1="828.556" x2="307.192" y2="881.764" style="stroke:rgb(255,0,0);stroke-width:2" />
<line x1="166.722" y1="873.851" x2="307.192" y2="881.764" style="stroke:rgb(255,0,0);stroke-width:2" />
<line x1="299.853" y1="828.556" x2="414.123" y2="765.708" style="stroke:rgb(255,0,0);stroke-width:2" />
<line x1="273.192" y1="777.053" x2="299.853" y2="828.556" style="stroke:rgb(255,0,0);stroke-width:2" />
<line x1="164.044" y1="843.5" x2="166.722" y2="873.851" style="stroke:rgb(255,0,0);stroke-width:2" />
<line x1="494.69" y1="840.75" x2="516.292" y2="830.309" style="stroke:rgb(255,0,0);stroke-width:2" />
<line x1="458.212" y1="816.811" x2="494.69" y2="840.75" style="stroke:rgb(255,0,0);stroke-width:2" />
<line x1="701.493" y1="648.714" x2="628.152" y2="799.587" style="stroke:rgb(255,0,0);stroke-width:2" />
<line x1="606.275" y1="793.924" x2="628.152" y2="799.588" style="stroke:rgb(255,0,0);stroke-width:2" />
<line x1="516.292" y1="830.309" x2="574.512" y2="812.144" style="stroke:rgb(255,0,0);stroke-width:2" />
<line x1="496.032" y1="753.323" x2="516.292" y2="830.309" style="stroke:rgb(255,0,0);stroke-width:2" />
<line x1="570.656" y1="728.448" x2="606.275" y2="793.924" style="stroke:rgb(255,0,0);stroke-width:2" />
<line x1="574.512" y1="812.144" x2="606.275" y2="793.924" style="stroke:rgb(255,0,0);stroke-width:2" />
<line x1="163.134" y1="781.615" x2="164.044" y2="843.5" style="stroke:rgb(255,0,0);stroke-width:2" />
<line x1="106.63" y1="843.5" x2="164.044" y2="843.5" style="stroke:rgb(255,0,0);stroke-width:2" />
<line x1="273.192" y1="777.053" x2="326.212" y2="736.404" style="stroke:rgb(255,0,0);stroke-width:2" />
<line x1="187.08" y1="704.905" x2="273.192" y2="777.053" style="stroke:rgb(255,0,0);stroke-width:2" />
<line x1="429.699" y1="757.796" x2="458.212" y2="816.811" style="stroke:rgb(255,0,0);stroke-width:2" />
<line x1="163.134" y1="781.615" x2="106.63" y2="843.5" style="stroke:rgb(255,0,0);stroke-width:2" />
<line x1="178.762" y1="710.507" x2="163.134" y2="781.615" style="stroke:rgb(255,0,0);stroke-width:2" />
<line x1="178.762" y1="710.507" x2="187.08" y2="704.905" style="stroke:rgb(255,0,0);stroke-width:2" />
<line x1="208.95" y1="588.269" x2="187.08" y2="704.905" style="stroke:rgb(255,0,0);stroke-width:2" />
<line x1="433.66" y1="733.831" x2="429.699" y2="757.796" style="stroke:rgb(255,0,0);stroke-width:2" />
<line x1="414.123" y1="765.708" x2="429.699" y2="757.796" style="stroke:rgb(255,0,0);stroke-width:2" />
<line x1="326.212" y1="736.404" x2="414.123" y2="765.708" style="stroke:rgb(255,0,0);stroke-width:2" />
<line x1="804.514" y1="702.534" x2="857.536" y2="652.013" style="stroke:rgb(255,0,0);stroke-width:2" />
<line x1="724.173" y1="641.204" x2="804.514" y2="702.534" style="stroke:rgb(255,0,0);stroke-width:2" />
<line x1="433.66" y1="733.831" x2="496.032" y2="753.323" style="stroke:rgb(255,0,0);stroke-width:2" />
<line x1="426.333" y1="653.848" x2="433.66" y2="733.831" style="stroke:rgb(255,0,0);stroke-width:2" />
<line x1="536.697" y1="617.46" x2="570.656" y2="728.448" style="stroke:rgb(255,0,0);stroke-width:2" />
<line x1="496.032" y1="753.323" x2="570.656" y2="728.448" style="stroke:rgb(255,0,0);stroke-width:2" />
<line x1="326.212" y1="736.404" x2="426.333" y2="653.848" style="stroke:rgb(255,0,0);stroke-width:2" />
<line x1="429.368" y1="641.843" x2="426.333" y2="653.848" style="stroke:rgb(255,0,0);stroke-width:2" />
<line x1="429.368" y1="641.843" x2="487.801" y2="597.632" style="stroke:rgb(255,0,0);stroke-width:2" />
<line x1="208.95" y1="588.269" x2="429.368" y2="641.843" style="stroke:rgb(255,0,0);stroke-width:2" />
<line x1="536.697" y1="617.46" x2="701.493" y2="648.714" style="stroke:rgb(255,0,0);stroke-width:2" />
<line x1="527.415" y1="608.237" x2="536.697" y2="617.46" style="stroke:rgb(255,0,0);stroke-width:2" />
<line x1="198.098" y1="555.375" x2="208.95" y2="588.269" style="stroke:rgb(255,0,0);stroke-width:2" />
<line x1="527.415" y1="608.237" x2="670.476" y2="478.449" style="stroke:rgb(255,0,0);stroke-width:2" />
<line x1="487.801" y1="597.632" x2="527.415" y2="608.237" style="stroke:rgb(255,0,0);stroke-width:2" />
<line x1="479.377" y1="570.286" x2="487.801" y2="597.632" style="stroke:rgb(255,0,0);stroke-width:2" />
<line x1="730.025" y1="597.309" x2="724.173" y2="641.204" style="stroke:rgb(255,0,0);stroke-width:2" />
<line x1="701.493" y1="648.714" x2="724.173" y2="641.204" style="stroke:rgb(255,0,0);stroke-width:2" />
<line x1="857.536" y1="652.013" x2="951.505" y2="632.914" style="stroke:rgb(255,0,0);stroke-width:2" />
<line x1="842.164" y1="583.292" x2="857.536" y2="652.013" style="stroke:rgb(255,0,0);stroke-width:2" />
<line x1="848.576" y1="510.924" x2="951.505" y2="632.914" style="stroke:rgb(255,0,0);stroke-width:2" />
<line x1="282.055" y1="445.891" x2="198.098" y2="555.375" style="stroke:rgb(255,0,0);stroke-width:2" />
<line x1="138.527" y1="531.449" x2="198.098" y2="555.375" style="stroke:rgb(255,0,0);stroke-width:2" />
<line x1="640.193" y1="367.151" x2="479.377" y2="570.286" style="stroke:rgb(255,0,0);stroke-width:2" />
<line x1="438.396" y1="479.054" x2="479.377" y2="570.286" style="stroke:rgb(255,0,0);stroke-width:2" />
<line x1="730.025" y1="597.309" x2="842.164" y2="583.292" style="stroke:rgb(255,0,0);stroke-width:2" />
<line x1="729.267" y1="569.455" x2="730.025" y2="597.309" style="stroke:rgb(255,0,0);stroke-width:2" />
<line x1="91.7298" y1="319.844" x2="138.527" y2="531.449" style="stroke:rgb(255,0,0);stroke-width:2" />
<line x1="729.267" y1="569.455" x2="848.534" y2="510.686" style="stroke:rgb(255,0,0);stroke-width:2" />
<line x1="670.476" y1="478.449" x2="729.267" y2="569.455" style="stroke:rgb(255,0,0);stroke-width:2" />
<line x1="801.928" y1="254.157" x2="1000" y2="373" style="stroke:rgb(255,0,0);stroke-width:2" />
<line x1="970.111" y1="441.815" x2="1000" y2="436.833" style="stroke:rgb(255,0,0);stroke-width:2" />
<line x1="848.576" y1="510.924" x2="842.164" y2="583.292" style="stroke:rgb(255,0,0);stroke-width:2" />
<line x1="848.534" y1="510.686" x2="848.576" y2="510.924" style="stroke:rgb(255,0,0);stroke-width:2" />
<line x1="850.145" y1="505.919" x2="848.534" y2="510.686" style="stroke:rgb(255,0,0);stroke-width:2" />
<line x1="850.145" y1="505.919" x2="970.111" y2="441.815" style="stroke:rgb(255,0,0);stroke-width:2" />
<line x1="695.284" y1="364.278" x2="850.145" y2="505.919" style="stroke:rgb(255,0,0);stroke-width:2" />
<line x1="486.194" y1="389.358" x2="438.396" y2="479.054" style="stroke:rgb(255,0,0);stroke-width:2" />
<line x1="282.055" y1="445.891" x2="438.396" y2="479.054" style="stroke:rgb(255,0,0);stroke-width:2" />
<line x1="683.179" y1="372.063" x2="670.476" y2="478.449" style="stroke:rgb(255,0,0);stroke-width:2" />
<line x1="269.546" y1="278.113" x2="282.055" y2="445.891" style="stroke:rgb(255,0,0);stroke-width:2" />
<line x1="727.16" y1="322.004" x2="970.111" y2="441.815" style="stroke:rgb(255,0,0);stroke-width:2" />
<line x1="683.179" y1="372.063" x2="695.284" y2="364.278" style="stroke:rgb(255,0,0);stroke-width:2" />
<line x1="640.193" y1="367.151" x2="683.179" y2="372.063" style="stroke:rgb(255,0,0);stroke-width:2" />
<line x1="727.16" y1="322.004" x2="695.284" y2="364.278" style="stroke:rgb(255,0,0);stroke-width:2" />
<line x1="618.729" y1="362.212" x2="640.193" y2="367.151" style="stroke:rgb(255,0,0);stroke-width:2" />
<line x1="589.969" y1="320.989" x2="618.729" y2="362.212" style="stroke:rgb(255,0,0);stroke-width:2" />
<line x1="486.194" y1="389.358" x2="618.729" y2="362.212" style="stroke:rgb(255,0,0);stroke-width:2" />
<line x1="473.009" y1="371.053" x2="486.194" y2="389.358" style="stroke:rgb(255,0,0);stroke-width:2" />
<line x1="744.661" y1="278.405" x2="727.16" y2="322.004" style="stroke:rgb(255,0,0);stroke-width:2" />
<line x1="466.19" y1="232.968" x2="473.009" y2="371.053" style="stroke:rgb(255,0,0);stroke-width:2" />
<line x1="269.546" y1="278.113" x2="473.009" y2="371.053" style="stroke:rgb(255,0,0);stroke-width:2" />
<line x1="251.151" y1="228.372" x2="269.546" y2="278.113" style="stroke:rgb(255,0,0);stroke-width:2" />
<line x1="744.662" y1="278.405" x2="801.928" y2="254.157" style="stroke:rgb(255,0,0);stroke-width:2" />
<line x1="692.55" y1="186.726" x2="744.662" y2="278.405" style="stroke:rgb(255,0,0);stroke-width:2" />
<line x1="91.7298" y1="319.844" x2="251.151" y2="228.372" style="stroke:rgb(255,0,0);stroke-width:2" />
<line x1="262.123" y1="180.61" x2="251.151" y2="228.372" style="stroke:rgb(255,0,0);stroke-width:2" />
<line x1="556.445" y1="200.303" x2="589.969" y2="320.989" style="stroke:rgb(255,0,0);stroke-width:2" />
<line x1="466.19" y1="232.968" x2="589.969" y2="320.989" style="stroke:rgb(255,0,0);stroke-width:2" />
<line x1="262.123" y1="180.61" x2="447.396" y2="189.628" style="stroke:rgb(255,0,0);stroke-width:2" />
<line x1="801.928" y1="254.157" x2="822.503" y2="234.701" style="stroke:rgb(255,0,0);stroke-width:2" />
<line x1="822.503" y1="234.701" x2="1000" y2="151.949" style="stroke:rgb(255,0,0);stroke-width:2" />
<line x1="820.704" y1="108.753" x2="822.503" y2="234.701" style="stroke:rgb(255,0,0);stroke-width:2" />
<line x1="820.704" y1="108.753" x2="1000" y2="124.574" style="stroke:rgb(255,0,0);stroke-width:2" />
<line x1="447.396" y1="189.628" x2="466.19" y2="232.968" style="stroke:rgb(255,0,0);stroke-width:2" />
<line x1="447.396" y1="189.628" x2="478.962" y2="171.437" style="stroke:rgb(255,0,0);stroke-width:2" />
<line x1="692.55" y1="186.726" x2="806.683" y2="79.5099" style="stroke:rgb(255,0,0);stroke-width:2" />
<line x1="683.817" y1="176.879" x2="692.55" y2="186.726" style="stroke:rgb(255,0,0);stroke-width:2" />
<line x1="629.237" y1="0" x2="683.817" y2="176.879" style="stroke:rgb(255,0,0);stroke-width:2" />
<line x1="556.445" y1="200.303" x2="683.817" y2="176.879" style="stroke:rgb(255,0,0);stroke-width:2" />
<line x1="478.962" y1="171.437" x2="556.445" y2="200.303" style="stroke:rgb(255,0,0);stroke-width:2" />
<line x1="570.804" y1="0" x2="478.962" y2="171.437" style="stroke:rgb(255,0,0);stroke-width:2" />
<line x1="603.267" y1="0" x2="603.267" y2="0" style="stroke:rgb(255,0,0);stroke-width:2" />
<line x1="806.683" y1="79.51" x2="820.704" y2="108.753" style="stroke:rgb(255,0,0);stroke-width:2" />
<line x1="805.154" y1="0" x2="806.683" y2="79.51" style="stroke:rgb(255,0,0);stroke-width:2" />
<circle cx="806" cy="600" r="12.0934" stroke="black" stroke-width="0" fill="#0066ff" fill-opacity="0.4" />
<circle cx="806" cy="600" r="2" stroke="black" stroke-width="0" fill="#000000" />
<text x="806" y="600">1</text>
<circle cx="510" cy="298" r="27.6089" stroke="black" stroke-width="0" fill="#0066ff" fill-opacity="0.4" />
<circle cx="510" cy="298" r="2" stroke="black" stroke-width="0" fill="#000000" />
<text x="510" y="298">2</text>
<circle cx="706" cy="731" r="40.0281" stroke="black" stroke-width="0" fill="#0066ff" fill-opacity="0.4" />
<circle cx="706" cy="731" r="2" stroke="black" stroke-width="0" fill="#000000" />
<text x="706" y="731">3</text>
<circle cx="596" cy="238" r="28.0224" stroke="black" stroke-width="0" fill="#0066ff" fill-opacity="0.4" />
<circle cx="596" cy="238" r="2" stroke="black" stroke-width="0" fill="#000000" />
<text x="596" y="238">4</text>
<circle cx="925" cy="277" r="43.7322" stroke="black" stroke-width="0" fill="#0066ff" fill-opacity="0.4" />
<circle cx="925" cy="277" r="2" stroke="black" stroke-width="0" fill="#000000" />
<text x="925" y="277">5</text>
<circle cx="755" cy="97" r="22.6385" stroke="black" stroke-width="0" fill="#0066ff" fill-opacity="0.4" />
<circle cx="755" cy="97" r="2" stroke="black" stroke-width="0" fill="#000000" />
<text x="755" y="97">6</text>
<circle cx="568" cy="483" r="15.3052" stroke="black" stroke-width="0" fill="#0066ff" fill-opacity="0.4" />
<circle cx="568" cy="483" r="2" stroke="black" stroke-width="0" fill="#000000" />
<text x="568" y="483">7</text>
<circle cx="59" cy="217" r="59" stroke="black" stroke-width="0" fill="#0066ff" fill-opacity="0.4" />
<circle cx="59" cy="217" r="2" stroke="black" stroke-width="0" fill="#000000" />
<text x="59" y="217">8</text>
<circle cx="66" cy="644" r="66" stroke="black" stroke-width="0" fill="#0066ff" fill-opacity="0.4" />
<circle cx="66" cy="644" r="2" stroke="black" stroke-width="0" fill="#000000" />
<text x="66" y="644">9</text>
<circle cx="634" cy="696" r="40.028" stroke="black" stroke-width="0" fill="#0066ff" fill-opacity="0.4" />
<circle cx="634" cy="696" r="2" stroke="black" stroke-width="0" fill="#000000" />
<text x="634" y="696">10</text>
<circle cx="392" cy="383" r="44.5253" stroke="black" stroke-width="0" fill="#0066ff" fill-opacity="0.4" />
<circle cx="392" cy="383" r="2" stroke="black" stroke-width="0" fill="#000000" />
<text x="392" y="383">11</text>
<circle cx="194" cy="911" r="35.5562" stroke="black" stroke-width="0" fill="#0066ff" fill-opacity="0.4" />
<circle cx="194" cy="911" r="2" stroke="black" stroke-width="0" fill="#000000" />
<text x="194" y="911">12</text>
<circle cx="548" cy="889" r="17.6139" stroke="black" stroke-width="0" fill="#0066ff" fill-opacity="0.4" />
<circle cx="548" cy="889" r="2" stroke="black" stroke-width="0" fill="#000000" />
<text x="548" y="889">13</text>
<circle cx="907" cy="706" r="62.7575" stroke="black" stroke-width="0" fill="#0066ff" fill-opacity="0.4" />
<circle cx="907" cy="706" r="2" stroke="black" stroke-width="0" fill="#000000" />
<text x="907" y="706">14</text>
<circle cx="490" cy="769" r="9.82341" stroke="black" stroke-width="0" fill="#0066ff" fill-opacity="0.4" />
<circle cx="490" cy="769" r="2" stroke="black" stroke-width="0" fill="#000000" />
<text x="490" y="769">15</text>
<circle cx="357" cy="548" r="74.0963" stroke="black" stroke-width="0" fill="#0066ff" fill-opacity="0.4" />
<circle cx="357" cy="548" r="2" stroke="black" stroke-width="0" fill="#000000" />
<text x="357" y="548">16</text>
<circle cx="786" cy="130" r="22.6385" stroke="black" stroke-width="0" fill="#0066ff" fill-opacity="0.4" />
<circle cx="786" cy="130" r="2" stroke="black" stroke-width="0" fill="#000000" />
<text x="786" y="130">17</text>
<circle cx="583" cy="893" r="17.6139" stroke="black" stroke-width="0" fill="#0066ff" fill-opacity="0.4" />
<circle cx="583" cy="893" r="2" stroke="black" stroke-width="0" fill="#000000" />
<text x="583" y="893">18</text>
<circle cx="580" cy="151" r="44.2295" stroke="black" stroke-width="0" fill="#0066ff" fill-opacity="0.4" />
<circle cx="580" cy="151" r="2" stroke="black" stroke-width="0" fill="#000000" />
<text x="580" y="151">19</text>
<circle cx="368" cy="752" r="1.58114" stroke="black" stroke-width="0" fill="#0066ff" fill-opacity="0.4" />
<circle cx="368" cy="752" r="2" stroke="black" stroke-width="0" fill="#000000" />
<text x="368" y="752">20</text>
<circle cx="427" cy="865" r="29.517" stroke="black" stroke-width="0" fill="#0066ff" fill-opacity="0.4" />
<circle cx="427" cy="865" r="2" stroke="black" stroke-width="0" fill="#000000" />
<text x="427" y="865">21</text>
<circle cx="130" cy="846" r="2.5" stroke="black" stroke-width="0" fill="#0066ff" fill-opacity="0.4" />
<circle cx="130" cy="846" r="2" stroke="black" stroke-width="0" fill="#000000" />
<text x="130" y="846">22</text>
<circle cx="509" cy="764" r="9.82347" stroke="black" stroke-width="0" fill="#0066ff" fill-opacity="0.4" />
<circle cx="509" cy="764" r="2" stroke="black" stroke-width="0" fill="#000000" />
<text x="509" y="764">23</text>
<circle cx="542" cy="253" r="27.6089" stroke="black" stroke-width="0" fill="#0066ff" fill-opacity="0.4" />
<circle cx="542" cy="253" r="2" stroke="black" stroke-width="0" fill="#000000" />
<text x="542" y="253">24</text>
<circle cx="500" cy="737" r="14.2302" stroke="black" stroke-width="0" fill="#0066ff" fill-opacity="0.4" />
<circle cx="500" cy="737" r="2" stroke="black" stroke-width="0" fill="#000000" />
<text x="500" y="737">25</text>
<circle cx="164" cy="400" r="53.2565" stroke="black" stroke-width="0" fill="#0066ff" fill-opacity="0.4" />
<circle cx="164" cy="400" r="2" stroke="black" stroke-width="0" fill="#000000" />
<text x="164" y="400">26</text>
<circle cx="107" cy="820" r="15.5723" stroke="black" stroke-width="0" fill="#0066ff" fill-opacity="0.4" />
<circle cx="107" cy="820" r="2" stroke="black" stroke-width="0" fill="#000000" />
<text x="107" y="820">27</text>
<circle cx="544" cy="464" r="15.3052" stroke="black" stroke-width="0" fill="#0066ff" fill-opacity="0.4" />
<circle cx="544" cy="464" r="2" stroke="black" stroke-width="0" fill="#000000" />
<text x="544" y="464">28</text>
<circle cx="369" cy="749" r="1.58114" stroke="black" stroke-width="0" fill="#0066ff" fill-opacity="0.4" />
<circle cx="369" cy="749" r="2" stroke="black" stroke-width="0" fill="#000000" />
<text x="369" y="749">29</text>
<circle cx="769" cy="507" r="38.461" stroke="black" stroke-width="0" fill="#0066ff" fill-opacity="0.4" />
<circle cx="769" cy="507" r="2" stroke="black" stroke-width="0" fill="#000000" />
<text x="769" y="507">30</text>
<circle cx="880" cy="352" r="40.6971" stroke="black" stroke-width="0" fill="#0066ff" fill-opacity="0.4" />
<circle cx="880" cy="352" r="2" stroke="black" stroke-width="0" fill="#000000" />
<text x="880" y="352">31</text>
<circle cx="401" cy="812" r="29.5169" stroke="black" stroke-width="0" fill="#0066ff" fill-opacity="0.4" />
<circle cx="401" cy="812" r="2" stroke="black" stroke-width="0" fill="#000000" />
<text x="401" y="812">32</text>
<circle cx="856" cy="129" r="17.066" stroke="black" stroke-width="0" fill="#0066ff" fill-opacity="0.4" />
<circle cx="856" cy="129" r="2" stroke="black" stroke-width="0" fill="#000000" />
<text x="856" y="129">33</text>
<circle cx="803" cy="576" r="12.0934" stroke="black" stroke-width="0" fill="#0066ff" fill-opacity="0.4" />
<circle cx="803" cy="576" r="2" stroke="black" stroke-width="0" fill="#000000" />
<text x="803" y="576">34</text>
<circle cx="882" cy="583" r="20.9343" stroke="black" stroke-width="0" fill="#0066ff" fill-opacity="0.4" />
<circle cx="882" cy="583" r="2" stroke="black" stroke-width="0" fill="#000000" />
<text x="882" y="583">35</text>
<circle cx="429" cy="302" r="40.5494" stroke="black" stroke-width="0" fill="#0066ff" fill-opacity="0.4" />
<circle cx="429" cy="302" r="2" stroke="black" stroke-width="0" fill="#000000" />
<text x="429" y="302">36</text>
<circle cx="60" cy="423" r="53.2565" stroke="black" stroke-width="0" fill="#0066ff" fill-opacity="0.4" />
<circle cx="60" cy="423" r="2" stroke="black" stroke-width="0" fill="#000000" />
<text x="60" y="423">37</text>
<circle cx="198" cy="840" r="34.0037" stroke="black" stroke-width="0" fill="#0066ff" fill-opacity="0.4" />
<circle cx="198" cy="840" r="2" stroke="black" stroke-width="0" fill="#000000" />
<text x="198" y="840">38</text>
<circle cx="859" cy="95" r="17.066" stroke="black" stroke-width="0" fill="#0066ff" fill-opacity="0.4" />
<circle cx="859" cy="95" r="2" stroke="black" stroke-width="0" fill="#000000" />
<text x="859" y="95">39</text>
<circle cx="656" cy="580" r="59.0339" stroke="black" stroke-width="0" fill="#0066ff" fill-opacity="0.4" />
<circle cx="656" cy="580" r="2" stroke="black" stroke-width="0" fill="#000000" />
<text x="656" y="580">40</text>
<circle cx="844" cy="425" r="40.6971" stroke="black" stroke-width="0" fill="#0066ff" fill-opacity="0.4" />
<circle cx="844" cy="425" r="2" stroke="black" stroke-width="0" fill="#000000" />
<text x="844" y="425">41</text>
<circle cx="440" cy="76" r="76" stroke="black" stroke-width="0" fill="#0066ff" fill-opacity="0.4" />
<circle cx="440" cy="76" r="2" stroke="black" stroke-width="0" fill="#000000" />
<text x="440" y="76">42</text>
<circle cx="130" cy="841" r="2.5" stroke="black" stroke-width="0" fill="#0066ff" fill-opacity="0.4" />
<circle cx="130" cy="841" r="2" stroke="black" stroke-width="0" fill="#000000" />
<text x="130" y="841">43</text>
<circle cx="322" cy="692" r="36.9391" stroke="black" stroke-width="0" fill="#0066ff" fill-opacity="0.4" />
<circle cx="322" cy="692" r="2" stroke="black" stroke-width="0" fill="#000000" />
<text x="322" y="692">44</text>
<circle cx="914" cy="556" r="20.9344" stroke="black" stroke-width="0" fill="#0066ff" fill-opacity="0.4" />
<circle cx="914" cy="556" r="2" stroke="black" stroke-width="0" fill="#000000" />
<text x="914" y="556">45</text>
</svg>
